# Blender v2.82 (sub 7) OBJ File: 'coffee_table_01.blend'
# www.blender.org
mtllib coffee_table_01.mtl
v -0.600000 0.200000 0.300000
v 0.600000 0.200000 0.300000
v -0.600000 0.200000 -0.300000
v 0.600000 0.200000 -0.300000
v -0.600000 0.250000 -0.300000
v -0.600000 0.250000 0.300000
v 0.600000 0.250000 0.300000
v 0.600000 0.250000 -0.300000
v -0.570000 -0.250000 0.300000
v -0.600000 -0.250000 0.270000
v -0.570000 -0.250000 0.240000
v -0.540000 -0.250000 0.270000
v -0.570000 0.200000 0.300000
v -0.600000 0.200000 0.270000
v -0.570000 0.200000 0.240000
v -0.540000 0.200000 0.270000
v -0.570000 -0.250000 -0.240000
v -0.600000 -0.250000 -0.270000
v -0.570000 -0.250000 -0.300000
v -0.540000 -0.250000 -0.270000
v -0.570000 0.200000 -0.240000
v -0.600000 0.200000 -0.270000
v -0.570000 0.200000 -0.300000
v -0.540000 0.200000 -0.270000
v 0.600000 0.200000 0.270000
v 0.570000 0.200000 0.240000
v 0.540000 0.200000 0.270000
v 0.570000 0.200000 0.300000
v 0.600000 -0.250000 0.270000
v 0.570000 -0.250000 0.240000
v 0.540000 -0.250000 0.270000
v 0.570000 -0.250000 0.300000
v 0.570000 -0.250000 -0.240000
v 0.540000 -0.250000 -0.270000
v 0.570000 -0.250000 -0.300000
v 0.600000 -0.250000 -0.270000
v 0.570000 0.200000 -0.240000
v 0.540000 0.200000 -0.270000
v 0.570000 0.200000 -0.300000
v 0.600000 0.200000 -0.270000
vt 0.130048 0.259500
vt 0.130048 0.759500
vt 0.898381 0.759500
vt 0.898381 0.259500
vt 0.130048 0.259500
vt 0.898381 0.259500
vt 0.898381 0.759500
vt 0.130048 0.759500
vt 0.898381 0.667500
vt 0.130048 0.667500
vt 0.130048 0.709167
vt 0.898381 0.709167
vt 0.130048 0.667500
vt 0.898381 0.667500
vt 0.898381 0.709167
vt 0.130048 0.709167
vt 0.315216 0.667500
vt 0.699383 0.667500
vt 0.699383 0.709167
vt 0.315216 0.709167
vt 0.699383 0.667500
vt 0.315216 0.667500
vt 0.315216 0.709167
vt 0.699383 0.709167
vt 0.130048 0.284500
vt 0.149256 0.309500
vt 0.168464 0.284500
vt 0.149256 0.259500
vt 0.334424 0.292500
vt 0.334424 0.667500
vt 0.315216 0.667500
vt 0.315216 0.292500
vt 0.130048 0.292500
vt 0.130048 0.667500
vt 0.149256 0.667500
vt 0.149256 0.292500
vt 0.353633 0.292500
vt 0.353633 0.667500
vt 0.149256 0.292500
vt 0.149256 0.667500
vt 0.130048 0.734500
vt 0.149256 0.759500
vt 0.168464 0.734500
vt 0.149256 0.709500
vt 0.680174 0.292500
vt 0.680174 0.667500
vt 0.660966 0.667500
vt 0.660966 0.292500
vt 0.130048 0.292500
vt 0.130048 0.667500
vt 0.149256 0.667500
vt 0.149256 0.292500
vt 0.699383 0.292500
vt 0.699383 0.667500
vt 0.149256 0.292500
vt 0.149256 0.667500
vt 0.353633 0.292500
vt 0.353633 0.667500
vt 0.334424 0.667500
vt 0.334424 0.292500
vt 0.859964 0.292500
vt 0.859964 0.667500
vt 0.879172 0.667500
vt 0.879172 0.292500
vt 0.315216 0.667500
vt 0.315216 0.292500
vt 0.859964 0.284500
vt 0.879172 0.309500
vt 0.898381 0.284500
vt 0.879172 0.259500
vt 0.879172 0.292500
vt 0.879172 0.667500
vt 0.859964 0.734500
vt 0.879172 0.759500
vt 0.898381 0.734500
vt 0.879172 0.709500
vt 0.680174 0.292500
vt 0.680174 0.667500
vt 0.660966 0.667500
vt 0.660966 0.292500
vt 0.699383 0.292500
vt 0.699383 0.667500
vt 0.879172 0.292500
vt 0.879172 0.667500
vt 0.859964 0.667500
vt 0.859964 0.292500
vn 0.0000 -1.0000 0.0000
vn 0.0000 1.0000 0.0000
vn 0.0000 0.0000 -1.0000
vn 0.0000 0.0000 1.0000
vn 1.0000 0.0000 0.0000
vn -1.0000 0.0000 0.0000
vn 0.7071 0.0000 0.7071
vn -0.7071 0.0000 -0.7071
vn 0.7071 0.0000 -0.7071
vn -0.7071 0.0000 0.7071
usemtl wood
s off
f 1/1/1 3/2/1 4/3/1 2/4/1
f 6/5/2 7/6/2 8/7/2 5/8/2
f 4/9/3 3/10/3 5/11/3 8/12/3
f 1/13/4 2/14/4 7/15/4 6/16/4
f 2/17/5 4/18/5 8/19/5 7/20/5
f 3/21/6 1/22/6 6/23/6 5/24/6
f 10/25/1 11/26/1 12/27/1 9/28/1
f 12/29/7 16/30/7 13/31/7 9/32/7
f 10/33/8 14/34/8 15/35/8 11/36/8
f 11/37/9 15/38/9 16/30/9 12/29/9
f 9/39/10 13/40/10 14/34/10 10/33/10
f 18/41/1 19/42/1 20/43/1 17/44/1
f 20/45/7 24/46/7 21/47/7 17/48/7
f 18/49/8 22/50/8 23/51/8 19/52/8
f 19/53/9 23/54/9 24/46/9 20/45/9
f 17/55/10 21/56/10 22/50/10 18/49/10
f 30/57/9 26/58/9 25/59/9 29/60/9
f 31/61/8 27/62/8 26/63/8 30/64/8
f 29/60/7 25/59/7 28/65/7 32/66/7
f 31/67/1 30/68/1 29/69/1 32/70/1
f 32/71/10 28/72/10 27/62/10 31/61/10
f 34/73/1 35/74/1 36/75/1 33/76/1
f 36/77/7 40/78/7 37/79/7 33/80/7
f 35/81/9 39/82/9 40/78/9 36/77/9
f 33/83/10 37/84/10 38/85/10 34/86/10
f 34/86/8 38/85/8 39/82/8 35/81/8
