# Blender v2.82 (sub 7) OBJ File: 'ladder_9ft.blend'
# www.blender.org
mtllib ladder_9ft.mtl
o Cylinder.008_Cylinder.009
v -0.160000 -1.500000 -0.015000
v 0.160000 -1.500000 -0.015000
v -0.160000 -1.512990 -0.007500
v 0.160000 -1.512990 -0.007500
v -0.160000 -1.512990 0.007500
v 0.160000 -1.512990 0.007500
v -0.160000 -1.500000 0.015000
v 0.160000 -1.500000 0.015000
v -0.160000 -1.487010 0.007500
v 0.160000 -1.487010 0.007500
v -0.160000 -1.487010 -0.007500
v 0.160000 -1.487010 -0.007500
v -0.160000 -0.250000 -0.015000
v 0.160000 -0.250000 -0.015000
v -0.160000 -0.262990 -0.007500
v 0.160000 -0.262990 -0.007500
v -0.160000 -0.262990 0.007500
v 0.160000 -0.262990 0.007500
v -0.160000 -0.250000 0.015000
v 0.160000 -0.250000 0.015000
v -0.160000 -0.237010 0.007500
v 0.160000 -0.237010 0.007500
v -0.160000 -0.237010 -0.007500
v 0.160000 -0.237010 -0.007500
v -0.160000 -0.500000 -0.015000
v 0.160000 -0.500000 -0.015000
v -0.160000 -0.512990 -0.007500
v 0.160000 -0.512990 -0.007500
v -0.160000 -0.512990 0.007500
v 0.160000 -0.512990 0.007500
v -0.160000 -0.500000 0.015000
v 0.160000 -0.500000 0.015000
v -0.160000 -0.487010 0.007500
v 0.160000 -0.487010 0.007500
v -0.160000 -0.487010 -0.007500
v 0.160000 -0.487010 -0.007500
v -0.160000 -0.750000 -0.015000
v 0.160000 -0.750000 -0.015000
v -0.160000 -0.762990 -0.007500
v 0.160000 -0.762990 -0.007500
v -0.160000 -0.762990 0.007500
v 0.160000 -0.762990 0.007500
v -0.160000 -0.750000 0.015000
v 0.160000 -0.750000 0.015000
v -0.160000 -0.737010 0.007500
v 0.160000 -0.737010 0.007500
v -0.160000 -0.737010 -0.007500
v 0.160000 -0.737010 -0.007500
v -0.160000 -1.000000 -0.015000
v 0.160000 -1.000000 -0.015000
v -0.160000 -1.012990 -0.007500
v 0.160000 -1.012990 -0.007500
v -0.160000 -1.012990 0.007500
v 0.160000 -1.012990 0.007500
v -0.160000 -1.000000 0.015000
v 0.160000 -1.000000 0.015000
v -0.160000 -0.987010 0.007500
v 0.160000 -0.987010 0.007500
v -0.160000 -0.987010 -0.007500
v 0.160000 -0.987010 -0.007500
v -0.160000 -1.250000 -0.015000
v 0.160000 -1.250000 -0.015000
v -0.160000 -1.262990 -0.007500
v 0.160000 -1.262990 -0.007500
v -0.160000 -1.262990 0.007500
v 0.160000 -1.262990 0.007500
v -0.160000 -1.250000 0.015000
v 0.160000 -1.250000 0.015000
v -0.160000 -1.237010 0.007500
v 0.160000 -1.237010 0.007500
v -0.160000 -1.237010 -0.007500
v 0.160000 -1.237010 -0.007500
v -0.160000 1.500000 -0.015000
v 0.160000 1.500000 -0.015000
v -0.160000 1.487010 -0.007500
v 0.160000 1.487010 -0.007500
v -0.160000 1.487010 0.007500
v 0.160000 1.487010 0.007500
v -0.160000 1.500000 0.015000
v 0.160000 1.500000 0.015000
v -0.160000 1.512990 0.007500
v 0.160000 1.512990 0.007500
v -0.160000 1.512990 -0.007500
v 0.160000 1.512990 -0.007500
v -0.160000 1.250000 -0.015000
v 0.160000 1.250000 -0.015000
v -0.160000 1.237010 -0.007500
v 0.160000 1.237010 -0.007500
v -0.160000 1.237010 0.007500
v 0.160000 1.237010 0.007500
v -0.160000 1.250000 0.015000
v 0.160000 1.250000 0.015000
v -0.160000 1.262990 0.007500
v 0.160000 1.262990 0.007500
v -0.160000 1.262990 -0.007500
v 0.160000 1.262990 -0.007500
v -0.160000 1.000000 -0.015000
v 0.160000 1.000000 -0.015000
v -0.160000 0.987010 -0.007500
v 0.160000 0.987010 -0.007500
v -0.160000 0.987010 0.007500
v 0.160000 0.987010 0.007500
v -0.160000 1.000000 0.015000
v 0.160000 1.000000 0.015000
v -0.160000 1.012990 0.007500
v 0.160000 1.012990 0.007500
v -0.160000 1.012990 -0.007500
v 0.160000 1.012990 -0.007500
v -0.160000 0.750000 -0.015000
v 0.160000 0.750000 -0.015000
v -0.160000 0.737010 -0.007500
v 0.160000 0.737010 -0.007500
v -0.160000 0.737010 0.007500
v 0.160000 0.737010 0.007500
v -0.160000 0.750000 0.015000
v 0.160000 0.750000 0.015000
v -0.160000 0.762990 0.007500
v 0.160000 0.762990 0.007500
v -0.160000 0.762990 -0.007500
v 0.160000 0.762990 -0.007500
v -0.160000 0.500000 -0.015000
v 0.160000 0.500000 -0.015000
v -0.160000 0.487010 -0.007500
v 0.160000 0.487010 -0.007500
v -0.160000 0.487010 0.007500
v 0.160000 0.487010 0.007500
v -0.160000 0.500000 0.015000
v 0.160000 0.500000 0.015000
v -0.160000 0.512990 0.007500
v 0.160000 0.512990 0.007500
v -0.160000 0.512990 -0.007500
v 0.160000 0.512990 -0.007500
v -0.160000 -1.500000 -0.020800
v -0.160000 1.500000 -0.020800
v -0.141987 -1.500000 -0.010400
v -0.141987 1.500000 -0.010400
v -0.141987 -1.500000 0.010400
v -0.141987 1.500000 0.010400
v -0.160000 -1.500000 0.020800
v -0.160000 1.500000 0.020800
v -0.178013 -1.500000 0.010400
v -0.178013 1.500000 0.010400
v -0.178013 -1.500000 -0.010400
v -0.178013 1.500000 -0.010400
v 0.160000 -1.500000 0.020800
v 0.160000 1.500000 0.020800
v 0.141987 -1.500000 0.010400
v 0.141987 1.500000 0.010400
v 0.141987 -1.500000 -0.010400
v 0.141987 1.500000 -0.010400
v 0.160000 -1.500000 -0.020800
v 0.160000 1.500000 -0.020800
v 0.178013 -1.500000 -0.010400
v 0.178013 1.500000 -0.010400
v 0.178013 -1.500000 0.010400
v 0.178013 1.500000 0.010400
v -0.160000 0.000000 -0.015000
v 0.160000 0.000000 -0.015000
v -0.160000 -0.012990 -0.007500
v 0.160000 -0.012990 -0.007500
v -0.160000 -0.012990 0.007500
v 0.160000 -0.012990 0.007500
v -0.160000 0.000000 0.015000
v 0.160000 0.000000 0.015000
v -0.160000 0.012990 0.007500
v 0.160000 0.012990 0.007500
v -0.160000 0.012990 -0.007500
v 0.160000 0.012990 -0.007500
v -0.160000 0.250000 -0.015000
v 0.160000 0.250000 -0.015000
v -0.160000 0.237010 -0.007500
v 0.160000 0.237010 -0.007500
v -0.160000 0.237010 0.007500
v 0.160000 0.237010 0.007500
v -0.160000 0.250000 0.015000
v 0.160000 0.250000 0.015000
v -0.160000 0.262990 0.007500
v 0.160000 0.262990 0.007500
v -0.160000 0.262990 -0.007500
v 0.160000 0.262990 -0.007500
vt 1.000000 0.500000
vt 1.000000 1.000000
vt 0.833333 1.000000
vt 0.833333 0.500000
vt 0.666667 1.000000
vt 0.666667 0.500000
vt 0.500000 1.000000
vt 0.500000 0.500000
vt 0.333333 1.000000
vt 0.333333 0.500000
vt 0.166667 1.000000
vt 0.166667 0.500000
vt -0.000000 1.000000
vt -0.000000 0.500000
vt 1.000000 0.500000
vt 1.000000 1.000000
vt 0.833333 1.000000
vt 0.833333 0.500000
vt 0.666667 1.000000
vt 0.666667 0.500000
vt 0.500000 1.000000
vt 0.500000 0.500000
vt 0.333333 1.000000
vt 0.333333 0.500000
vt 0.166667 1.000000
vt 0.166667 0.500000
vt -0.000000 1.000000
vt -0.000000 0.500000
vt 1.000000 0.500000
vt 1.000000 1.000000
vt 0.833333 1.000000
vt 0.833333 0.500000
vt 0.666667 1.000000
vt 0.666667 0.500000
vt 0.500000 1.000000
vt 0.500000 0.500000
vt 0.333333 1.000000
vt 0.333333 0.500000
vt 0.166667 1.000000
vt 0.166667 0.500000
vt -0.000000 1.000000
vt -0.000000 0.500000
vt 1.000000 0.500000
vt 1.000000 1.000000
vt 0.833333 1.000000
vt 0.833333 0.500000
vt 0.666667 1.000000
vt 0.666667 0.500000
vt 0.500000 1.000000
vt 0.500000 0.500000
vt 0.333333 1.000000
vt 0.333333 0.500000
vt 0.166667 1.000000
vt 0.166667 0.500000
vt -0.000000 1.000000
vt -0.000000 0.500000
vt 1.000000 0.500000
vt 1.000000 1.000000
vt 0.833333 1.000000
vt 0.833333 0.500000
vt 0.666667 1.000000
vt 0.666667 0.500000
vt 0.500000 1.000000
vt 0.500000 0.500000
vt 0.333333 1.000000
vt 0.333333 0.500000
vt 0.166667 1.000000
vt 0.166667 0.500000
vt -0.000000 1.000000
vt -0.000000 0.500000
vt 1.000000 0.500000
vt 1.000000 1.000000
vt 0.833333 1.000000
vt 0.833333 0.500000
vt 0.666667 1.000000
vt 0.666667 0.500000
vt 0.500000 1.000000
vt 0.500000 0.500000
vt 0.333333 1.000000
vt 0.333333 0.500000
vt 0.166667 1.000000
vt 0.166667 0.500000
vt -0.000000 1.000000
vt -0.000000 0.500000
vt 1.000000 0.500000
vt 1.000000 1.000000
vt 0.833333 1.000000
vt 0.833333 0.500000
vt 0.666667 1.000000
vt 0.666667 0.500000
vt 0.500000 1.000000
vt 0.500000 0.500000
vt 0.333333 1.000000
vt 0.333333 0.500000
vt 0.166667 1.000000
vt 0.166667 0.500000
vt -0.000000 1.000000
vt -0.000000 0.500000
vt 1.000000 0.500000
vt 1.000000 1.000000
vt 0.833333 1.000000
vt 0.833333 0.500000
vt 0.666667 1.000000
vt 0.666667 0.500000
vt 0.500000 1.000000
vt 0.500000 0.500000
vt 0.333333 1.000000
vt 0.333333 0.500000
vt 0.166667 1.000000
vt 0.166667 0.500000
vt -0.000000 1.000000
vt -0.000000 0.500000
vt 1.000000 0.500000
vt 1.000000 1.000000
vt 0.833333 1.000000
vt 0.833333 0.500000
vt 0.666667 1.000000
vt 0.666667 0.500000
vt 0.500000 1.000000
vt 0.500000 0.500000
vt 0.333333 1.000000
vt 0.333333 0.500000
vt 0.166667 1.000000
vt 0.166667 0.500000
vt -0.000000 1.000000
vt -0.000000 0.500000
vt 1.000000 0.500000
vt 1.000000 1.000000
vt 0.833333 1.000000
vt 0.833333 0.500000
vt 0.666667 1.000000
vt 0.666667 0.500000
vt 0.500000 1.000000
vt 0.500000 0.500000
vt 0.333333 1.000000
vt 0.333333 0.500000
vt 0.166667 1.000000
vt 0.166667 0.500000
vt -0.000000 1.000000
vt -0.000000 0.500000
vt 1.000000 0.500000
vt 1.000000 1.000000
vt 0.833333 1.000000
vt 0.833333 0.500000
vt 0.666667 1.000000
vt 0.666667 0.500000
vt 0.500000 1.000000
vt 0.500000 0.500000
vt 0.333333 1.000000
vt 0.333333 0.500000
vt 0.166667 1.000000
vt 0.166667 0.500000
vt -0.000000 1.000000
vt -0.000000 0.500000
vt 0.058190 1.000000
vt 0.058185 0.000000
vt 0.174553 0.000000
vt 0.174558 1.000000
vt 0.232738 0.000000
vt 0.232743 1.000000
vt 0.465480 0.000000
vt 0.465481 1.000000
vt 0.407297 1.000000
vt 0.407296 0.000000
vt 0.290928 1.000000
vt 0.290927 0.000000
vt 0.566260 0.013867
vt 0.667038 0.017333
vt 0.667038 0.024267
vt 0.566260 0.027733
vt 0.465481 0.024267
vt 0.465481 0.017333
vt 0.232744 1.000000
vt 0.232743 0.000000
vt 0.000005 1.000000
vt 0.000000 0.000000
vt 0.465481 0.010400
vt 0.465481 0.003467
vt 0.566260 0.000000
vt 0.667038 0.003467
vt 0.667038 0.010400
vt 0.566260 0.013867
vt 0.058190 1.000000
vt 0.058185 0.000000
vt 0.174553 0.000000
vt 0.174558 1.000000
vt 0.232738 0.000000
vt 0.232743 1.000000
vt 0.465480 0.000000
vt 0.465481 1.000000
vt 0.407297 1.000000
vt 0.407296 0.000000
vt 0.290928 1.000000
vt 0.290927 0.000000
vt 0.566260 0.013867
vt 0.667038 0.017333
vt 0.667038 0.024267
vt 0.566260 0.027733
vt 0.465481 0.024267
vt 0.465481 0.017333
vt 0.232744 1.000000
vt 0.232743 0.000000
vt 0.000005 1.000000
vt 0.000000 0.000000
vt 0.465481 0.010400
vt 0.465481 0.003467
vt 0.566260 0.000000
vt 0.667038 0.003467
vt 0.667038 0.010400
vt 0.566260 0.013867
vt 1.000000 0.500000
vt 1.000000 1.000000
vt 0.833333 1.000000
vt 0.833333 0.500000
vt 0.666667 1.000000
vt 0.666667 0.500000
vt 0.500000 1.000000
vt 0.500000 0.500000
vt 0.333333 1.000000
vt 0.333333 0.500000
vt 0.166667 1.000000
vt 0.166667 0.500000
vt -0.000000 1.000000
vt -0.000000 0.500000
vt 1.000000 0.500000
vt 1.000000 1.000000
vt 0.833333 1.000000
vt 0.833333 0.500000
vt 0.666667 1.000000
vt 0.666667 0.500000
vt 0.500000 1.000000
vt 0.500000 0.500000
vt 0.333333 1.000000
vt 0.333333 0.500000
vt 0.166667 1.000000
vt 0.166667 0.500000
vt -0.000000 1.000000
vt -0.000000 0.500000
vn 0.0000 0.0000 -1.0000
vn 0.0000 -0.8660 -0.5000
vn 0.0000 -0.8660 0.5000
vn 0.0000 0.0000 1.0000
vn 0.0000 0.8660 0.5000
vn 0.0000 0.8660 -0.5000
vn 0.0000 -0.6100 -0.7924
vn 0.0000 0.6100 -0.7924
vn 0.6862 0.6100 -0.3962
vn 0.6862 -0.6100 -0.3962
vn 0.6862 0.6100 0.3962
vn 0.6862 -0.6100 0.3962
vn 0.0000 0.6100 0.7924
vn 0.0000 -0.6100 0.7924
vn -0.6862 0.6100 0.3962
vn -0.6862 -0.6100 0.3962
vn -0.6862 0.6100 -0.3962
vn -0.6862 -0.6100 -0.3962
usemtl Material
s 1
f 1/1/1 2/2/1 4/3/2 3/4/2
f 3/4/2 4/3/2 6/5/3 5/6/3
f 5/6/3 6/5/3 8/7/4 7/8/4
f 7/8/4 8/7/4 10/9/5 9/10/5
f 9/10/5 10/9/5 12/11/6 11/12/6
f 11/12/6 12/11/6 2/13/1 1/14/1
f 13/15/1 14/16/1 16/17/2 15/18/2
f 15/18/2 16/17/2 18/19/3 17/20/3
f 17/20/3 18/19/3 20/21/4 19/22/4
f 19/22/4 20/21/4 22/23/5 21/24/5
f 21/24/5 22/23/5 24/25/6 23/26/6
f 23/26/6 24/25/6 14/27/1 13/28/1
f 25/29/1 26/30/1 28/31/2 27/32/2
f 27/32/2 28/31/2 30/33/3 29/34/3
f 29/34/3 30/33/3 32/35/4 31/36/4
f 31/36/4 32/35/4 34/37/5 33/38/5
f 33/38/5 34/37/5 36/39/6 35/40/6
f 35/40/6 36/39/6 26/41/1 25/42/1
f 37/43/1 38/44/1 40/45/2 39/46/2
f 39/46/2 40/45/2 42/47/3 41/48/3
f 41/48/3 42/47/3 44/49/4 43/50/4
f 43/50/4 44/49/4 46/51/5 45/52/5
f 45/52/5 46/51/5 48/53/6 47/54/6
f 47/54/6 48/53/6 38/55/1 37/56/1
f 49/57/1 50/58/1 52/59/2 51/60/2
f 51/60/2 52/59/2 54/61/3 53/62/3
f 53/62/3 54/61/3 56/63/4 55/64/4
f 55/64/4 56/63/4 58/65/5 57/66/5
f 57/66/5 58/65/5 60/67/6 59/68/6
f 59/68/6 60/67/6 50/69/1 49/70/1
f 61/71/1 62/72/1 64/73/2 63/74/2
f 63/74/2 64/73/2 66/75/3 65/76/3
f 65/76/3 66/75/3 68/77/4 67/78/4
f 67/78/4 68/77/4 70/79/5 69/80/5
f 69/80/5 70/79/5 72/81/6 71/82/6
f 71/82/6 72/81/6 62/83/1 61/84/1
f 73/85/1 74/86/1 76/87/2 75/88/2
f 75/88/2 76/87/2 78/89/3 77/90/3
f 77/90/3 78/89/3 80/91/4 79/92/4
f 79/92/4 80/91/4 82/93/5 81/94/5
f 81/94/5 82/93/5 84/95/6 83/96/6
f 83/96/6 84/95/6 74/97/1 73/98/1
f 85/99/1 86/100/1 88/101/2 87/102/2
f 87/102/2 88/101/2 90/103/3 89/104/3
f 89/104/3 90/103/3 92/105/4 91/106/4
f 91/106/4 92/105/4 94/107/5 93/108/5
f 93/108/5 94/107/5 96/109/6 95/110/6
f 95/110/6 96/109/6 86/111/1 85/112/1
f 97/113/1 98/114/1 100/115/2 99/116/2
f 99/116/2 100/115/2 102/117/3 101/118/3
f 101/118/3 102/117/3 104/119/4 103/120/4
f 103/120/4 104/119/4 106/121/5 105/122/5
f 105/122/5 106/121/5 108/123/6 107/124/6
f 107/124/6 108/123/6 98/125/1 97/126/1
f 109/127/1 110/128/1 112/129/2 111/130/2
f 111/130/2 112/129/2 114/131/3 113/132/3
f 113/132/3 114/131/3 116/133/4 115/134/4
f 115/134/4 116/133/4 118/135/5 117/136/5
f 117/136/5 118/135/5 120/137/6 119/138/6
f 119/138/6 120/137/6 110/139/1 109/140/1
f 121/141/1 122/142/1 124/143/2 123/144/2
f 123/144/2 124/143/2 126/145/3 125/146/3
f 125/146/3 126/145/3 128/147/4 127/148/4
f 127/148/4 128/147/4 130/149/5 129/150/5
f 129/150/5 130/149/5 132/151/6 131/152/6
f 131/152/6 132/151/6 122/153/1 121/154/1
f 133/155/7 134/156/8 136/157/9 135/158/10
f 135/158/10 136/157/9 138/159/11 137/160/12
f 137/161/12 138/162/11 140/163/13 139/164/14
f 139/164/14 140/163/13 142/165/15 141/166/16
f 136/167/9 134/168/8 144/169/17 142/170/15 140/171/13 138/172/11
f 141/166/16 142/165/15 144/173/17 143/174/18
f 143/175/18 144/176/17 134/156/8 133/155/7
f 133/177/7 135/178/10 137/179/12 139/180/14 141/181/16 143/182/18
f 145/183/14 146/184/13 148/185/15 147/186/16
f 147/186/16 148/185/15 150/187/17 149/188/18
f 149/189/18 150/190/17 152/191/8 151/192/7
f 151/192/7 152/191/8 154/193/9 153/194/10
f 148/195/15 146/196/13 156/197/11 154/198/9 152/199/8 150/200/17
f 153/194/10 154/193/9 156/201/11 155/202/12
f 155/203/12 156/204/11 146/184/13 145/183/14
f 145/205/14 147/206/16 149/207/18 151/208/7 153/209/10 155/210/12
f 157/211/1 158/212/1 160/213/2 159/214/2
f 159/214/2 160/213/2 162/215/3 161/216/3
f 161/216/3 162/215/3 164/217/4 163/218/4
f 163/218/4 164/217/4 166/219/5 165/220/5
f 165/220/5 166/219/5 168/221/6 167/222/6
f 167/222/6 168/221/6 158/223/1 157/224/1
f 169/225/1 170/226/1 172/227/2 171/228/2
f 171/228/2 172/227/2 174/229/3 173/230/3
f 173/230/3 174/229/3 176/231/4 175/232/4
f 175/232/4 176/231/4 178/233/5 177/234/5
f 177/234/5 178/233/5 180/235/6 179/236/6
f 179/236/6 180/235/6 170/237/1 169/238/1
